<?xml version="1.0" encoding="UTF-8"?>
<!DOCTYPE svg PUBLIC "-//W3C//DTD SVG 1.1//EN" "http://www.w3.org/Graphics/SVG/1.1/DTD/svg11.dtd">
<svg xmlns="http://www.w3.org/2000/svg" version="1.1" width="500px" height="500px" style="shape-rendering:geometricPrecision; text-rendering:geometricPrecision; image-rendering:optimizeQuality; fill-rule:evenodd; clip-rule:evenodd" xmlns:xlink="http://www.w3.org/1999/xlink">
<g><path style="opacity:1" fill="#fefefe" d="M -0.5,-0.5 C 166.167,-0.5 332.833,-0.5 499.5,-0.5C 499.5,166.167 499.5,332.833 499.5,499.5C 332.833,499.5 166.167,499.5 -0.5,499.5C -0.5,332.833 -0.5,166.167 -0.5,-0.5 Z"/></g>
<g><path style="opacity:1" fill="#000000" d="M 201.5,108.5 C 210.415,107.702 216.582,111.369 220,119.5C 220.667,205.833 220.667,292.167 220,378.5C 215.522,389.819 207.689,392.986 196.5,388C 193.533,385.9 191.7,383.066 191,379.5C 190.333,292.5 190.333,205.5 191,118.5C 193.106,113.557 196.606,110.224 201.5,108.5 Z"/></g>
<g><path style="opacity:1" fill="#010101" d="M 466.5,121.5 C 475.755,120.376 482.255,124.042 486,132.5C 486.667,214.5 486.667,296.5 486,378.5C 481.421,389.693 473.587,392.86 462.5,388C 459.894,386.062 458.061,383.562 457,380.5C 456.333,297.167 456.333,213.833 457,130.5C 459.406,126.592 462.572,123.592 466.5,121.5 Z"/></g>
<g><path style="opacity:1" fill="#000000" d="M 155.5,151.5 C 165.125,149.416 171.958,152.749 176,161.5C 176.667,234.167 176.667,306.833 176,379.5C 170.928,390.124 163.095,392.957 152.5,388C 149.894,386.062 148.061,383.562 147,380.5C 146.333,307.167 146.333,233.833 147,160.5C 148.688,156.315 151.521,153.315 155.5,151.5 Z"/></g>
<g><path style="opacity:1" fill="#030303" d="M 420.5,151.5 C 430.884,149.273 438.051,152.94 442,162.5C 442.667,234.5 442.667,306.5 442,378.5C 437.421,389.693 429.587,392.86 418.5,388C 416.291,386.127 414.458,383.96 413,381.5C 412.333,307.5 412.333,233.5 413,159.5C 415.028,156.308 417.528,153.641 420.5,151.5 Z"/></g>
<g><path style="opacity:1" fill="#000000" d="M 111.5,170.5 C 120.59,169.016 127.09,172.35 131,180.5C 131.667,246.833 131.667,313.167 131,379.5C 128.916,386.746 124.083,390.413 116.5,390.5C 108.607,390.144 103.774,386.144 102,378.5C 101.333,312.5 101.333,246.5 102,180.5C 104.022,175.98 107.189,172.647 111.5,170.5 Z"/></g>
<g><path style="opacity:1" fill="#000000" d="M 67.5,181.5 C 76.5897,180.016 83.0897,183.35 87,191.5C 87.6667,254.5 87.6667,317.5 87,380.5C 80.9845,390.614 72.8178,392.781 62.5,387C 60.8767,384.92 59.3767,382.754 58,380.5C 57.3333,317.5 57.3333,254.5 58,191.5C 60.0223,186.98 63.189,183.647 67.5,181.5 Z"/></g>
<g><path style="opacity:1" fill="#000000" d="M 244.5,181.5 C 253.59,180.016 260.09,183.35 264,191.5C 264.667,254.5 264.667,317.5 264,380.5C 257.985,390.614 249.818,392.781 239.5,387C 237.57,384.742 236.07,382.242 235,379.5C 234.333,316.833 234.333,254.167 235,191.5C 237.022,186.98 240.189,183.647 244.5,181.5 Z"/></g>
<g><path style="opacity:1" fill="#000000" d="M 377.5,181.5 C 386.59,180.016 393.09,183.35 397,191.5C 397.667,253.833 397.667,316.167 397,378.5C 392.522,389.819 384.689,392.986 373.5,388C 370.533,385.9 368.7,383.066 368,379.5C 367.333,316.833 367.333,254.167 368,191.5C 370.022,186.98 373.189,183.647 377.5,181.5 Z"/></g>
<g><path style="opacity:1" fill="#080808" d="M 23.5,204.5 C 33.2889,203.305 39.7889,207.305 43,216.5C 43.6667,270.5 43.6667,324.5 43,378.5C 38.3802,389.705 30.5469,392.872 19.5,388C 16.5665,385.736 14.3999,382.902 13,379.5C 12.3333,324.833 12.3333,270.167 13,215.5C 14.7277,209.973 18.2277,206.306 23.5,204.5 Z"/></g>
<g><path style="opacity:1" fill="#000000" d="M 288.5,204.5 C 297.082,203.186 303.582,206.186 308,213.5C 308.667,268.833 308.667,324.167 308,379.5C 305.916,386.746 301.083,390.413 293.5,390.5C 285.607,390.144 280.774,386.144 279,378.5C 278.333,323.833 278.333,269.167 279,214.5C 281.022,209.98 284.189,206.647 288.5,204.5 Z"/></g>
<g><path style="opacity:1" fill="#000000" d="M 334.5,249.5 C 343.34,248.67 349.506,252.337 353,260.5C 353.667,300.167 353.667,339.833 353,379.5C 347.952,390.11 340.118,392.943 329.5,388C 326.894,386.062 325.061,383.562 324,380.5C 323.333,339.833 323.333,299.167 324,258.5C 326.489,254.168 329.989,251.168 334.5,249.5 Z"/></g>
</svg>
